<svg xmlns="http://www.w3.org/2000/svg" viewBox="65 65 382 382" fill="none" shape-rendering="geometricPrecision" role="img" aria-labelledby="pdfroot-symbol-title pdfroot-symbol-description">
  <title id="pdfroot-symbol-title">PDFRoot</title>
  <desc id="pdfroot-symbol-description">Interlocking red and black rounded square symbol.</desc>
  <path
    d="M323 144V121A28 28 0 0 0 295 93H121A28 28 0 0 0 93 121V295A28 28 0 0 0 121 323H295A28 28 0 0 0 323 295V232"
    stroke="#EF4444"
    stroke-width="34"
    stroke-linecap="round"
    stroke-linejoin="round"
  />
  <path
    d="M189 368V391A28 28 0 0 0 217 419H391A28 28 0 0 0 419 391V217A28 28 0 0 0 391 189H217A28 28 0 0 0 189 217V280"
    stroke="#111111"
    stroke-width="34"
    stroke-linecap="round"
    stroke-linejoin="round"
  />
</svg>
